<?xml version="1.0" standalone="no"?>
<!DOCTYPE svg PUBLIC "-//W3C//DTD SVG 20010904//EN"
 "http://www.w3.org/TR/2001/REC-SVG-20010904/DTD/svg10.dtd">
<svg version="1.0" xmlns="http://www.w3.org/2000/svg"
 width="2040.000000pt" height="2040.000000pt" viewBox="0 0 2040.000000 2040.000000"
 preserveAspectRatio="xMidYMid meet">
<metadata>
Created by potrace 1.14, written by Peter Selinger 2001-2017
</metadata>
<g transform="translate(0.000000,2040.000000) scale(0.100000,-0.100000)"
fill="#000000" stroke="none">
<path d="M10428 16645 c-1 -2 -50 -6 -108 -10 -159 -10 -290 -21 -346 -30 -12
-2 -48 -6 -80 -10 -69 -8 -107 -20 -269 -91 -32 -13 -162 -50 -205 -57 -14 -2
9 -5 50 -7 41 -1 104 -4 140 -5 36 -2 135 -6 220 -9 85 -3 175 -8 200 -10 25
-3 88 -7 140 -10 52 -4 106 -8 120 -10 14 -2 54 -7 90 -10 98 -10 243 -35 355
-62 394 -94 661 -268 869 -565 43 -62 145 -255 173 -324 58 -149 112 -331 127
-431 4 -20 9 -46 11 -58 5 -21 7 -36 22 -161 16 -140 9 -615 -11 -721 -2 -11
-7 -46 -11 -79 -10 -88 -52 -314 -81 -435 -14 -58 -27 -112 -29 -120 -32 -152
-216 -700 -300 -895 -7 -16 -29 -68 -48 -115 -35 -85 -99 -229 -173 -390 -182
-399 -456 -885 -761 -1352 -95 -146 -292 -433 -366 -532 -18 -24 -41 -56 -52
-72 -64 -90 -456 -598 -474 -614 -3 -3 -24 -27 -45 -55 -45 -56 -268 -327
-276 -335 -3 -3 -59 -68 -125 -145 -121 -141 -136 -159 -234 -269 -30 -34
-215 -221 -411 -416 -197 -195 -392 -395 -435 -445 -42 -49 -79 -89 -82 -87
-3 2 -10 -3 -16 -11 -7 -7 -50 -47 -97 -87 -47 -41 -91 -80 -98 -87 -38 -37
-110 -87 -212 -148 -107 -64 -279 -173 -290 -185 -3 -3 -27 -23 -55 -44 -55
-43 -103 -92 -143 -145 -26 -33 -116 -97 -366 -259 -71 -47 -134 -89 -140 -94
-19 -16 -1139 -797 -1231 -859 -39 -25 -141 -81 -275 -149 -36 -19 -92 -55
-125 -81 -42 -33 -99 -63 -185 -97 -69 -27 -260 -103 -425 -170 -684 -275
-1108 -408 -1500 -472 -151 -24 -179 -28 -270 -35 -38 -4 -81 -8 -95 -11 -31
-6 -428 -6 -455 0 -11 2 -58 7 -105 11 -47 4 -87 8 -90 10 -3 2 -30 6 -60 10
-30 4 -58 9 -61 11 -4 2 -24 6 -45 10 -124 19 -359 97 -489 161 -78 39 -216
127 -267 169 -82 69 -208 207 -261 287 -118 178 -214 410 -258 625 -5 24 -10
46 -13 50 -2 4 -7 29 -10 56 -4 27 -9 52 -10 55 -2 3 -7 26 -10 51 -3 25 -8
56 -10 70 -9 50 -31 257 -41 374 -2 23 -7 100 -10 171 -6 131 -14 227 -18 231
-4 5 -82 -72 -98 -97 -26 -40 -100 -253 -114 -327 -2 -12 -6 -30 -9 -40 -3 -9
-8 -30 -11 -47 -2 -16 -9 -55 -15 -85 -5 -30 -12 -68 -15 -85 -20 -118 -28
-497 -12 -613 22 -165 30 -205 62 -332 80 -320 207 -584 414 -860 83 -111 271
-310 358 -379 40 -31 73 -58 100 -81 6 -5 58 -40 114 -77 160 -105 312 -178
549 -264 26 -9 230 -59 265 -64 11 -2 54 -9 95 -16 118 -20 598 -16 705 6 11
2 45 7 76 10 31 3 67 8 80 10 13 3 41 7 64 10 22 3 65 10 95 16 30 5 69 11 85
14 17 3 41 8 55 11 14 3 36 8 50 10 14 3 50 11 80 19 30 8 69 16 85 19 159 28
715 201 1010 315 293 114 724 311 893 409 114 67 406 174 542 199 14 2 44 8
68 14 23 5 59 12 78 15 20 3 45 7 54 9 10 2 40 6 67 10 26 4 58 8 71 10 12 2
57 7 100 11 42 3 91 8 107 10 225 22 870 22 1290 -1 38 -2 117 -6 175 -9 58
-3 173 -9 255 -13 191 -10 1060 -9 1485 1 577 13 758 16 1155 16 376 1 775 -6
900 -14 33 -2 107 -7 165 -11 160 -10 238 -19 375 -42 116 -19 124 -19 126
-10 1 9 -9 81 -41 279 -16 105 -61 401 -66 438 -2 19 -6 46 -9 59 -2 13 -7 45
-11 70 -4 25 -8 55 -10 65 -2 11 -8 56 -15 100 -6 44 -12 83 -14 86 -3 5 -13
89 -20 170 -2 25 -7 59 -10 75 -20 105 -27 142 -30 160 -2 11 -12 70 -24 130
-11 61 -23 124 -26 140 -8 48 -25 138 -30 165 -5 24 -8 40 -22 120 -3 19 -7
44 -9 55 -14 70 -66 355 -79 425 -3 19 -12 67 -20 105 -8 39 -19 97 -25 130
-5 33 -12 71 -15 85 -3 14 -9 50 -15 80 -5 30 -11 66 -14 80 -4 22 -21 114
-32 180 -3 14 -34 185 -69 380 -35 195 -67 369 -70 385 -5 29 -8 48 -20 105
-2 14 -7 41 -10 60 -3 19 -8 46 -10 60 -3 14 -7 36 -10 49 -8 42 -67 374 -69
387 -1 8 -5 16 -8 19 -8 8 -157 -76 -283 -160 -86 -57 -377 -268 -430 -312
-66 -54 -402 -263 -424 -263 -26 0 164 283 467 695 638 867 821 1145 1112
1685 104 193 318 631 399 815 46 105 91 208 101 230 33 73 98 238 150 380 28
77 55 149 60 160 23 54 155 465 165 513 2 9 17 67 33 127 34 125 44 165 48
182 1 6 7 35 14 65 6 29 20 94 31 143 11 50 22 110 25 135 3 24 7 47 9 50 2 3
6 29 10 59 4 30 9 63 11 75 2 12 7 46 10 76 3 30 7 66 9 79 19 113 26 535 12
691 -28 307 -93 552 -208 782 -51 101 -153 259 -211 325 -173 198 -419 372
-658 466 -14 5 -34 14 -45 18 -88 38 -304 99 -430 123 -114 21 -206 35 -285
42 -41 3 -84 9 -95 11 -22 6 -621 13 -627 8z"/>
<path d="M5927 14643 c-1 0 -195 -4 -432 -8 -236 -3 -475 -8 -530 -10 -347
-14 -470 -20 -590 -30 -33 -3 -91 -8 -130 -11 -38 -2 -81 -7 -95 -9 -14 -2
-52 -7 -85 -10 -106 -11 -259 -45 -305 -68 l-45 -22 -37 -136 c-42 -155 -71
-234 -86 -234 -5 0 -24 13 -41 28 -57 51 -112 59 -190 29 -52 -20 -51 -17 -80
-192 -6 -36 -13 -83 -16 -105 -4 -22 -8 -47 -10 -55 -3 -8 -12 -55 -20 -105
-9 -49 -18 -101 -20 -115 -3 -14 -9 -52 -15 -85 -5 -33 -12 -71 -15 -85 -3
-14 -10 -52 -15 -85 -12 -70 -15 -86 -40 -225 -11 -58 -33 -188 -50 -290 -17
-102 -35 -207 -40 -235 -12 -57 -46 -252 -54 -305 -3 -19 -8 -47 -11 -62 -10
-57 -16 -86 -35 -203 -12 -66 -29 -165 -40 -220 -10 -55 -22 -122 -25 -150 -4
-27 -9 -53 -11 -56 -1 -3 -6 -28 -10 -55 -3 -27 -7 -56 -9 -64 -20 -106 -36
-192 -41 -224 -3 -21 -8 -48 -10 -60 -9 -45 -26 -142 -29 -161 -4 -25 -15 -92
-21 -125 -3 -21 -20 -118 -39 -225 -2 -11 -10 -58 -19 -105 -8 -47 -18 -101
-21 -120 -7 -41 -16 -96 -21 -125 -3 -11 -6 -33 -9 -50 -3 -16 -10 -52 -15
-80 -5 -27 -11 -63 -14 -80 -2 -16 -13 -82 -25 -145 -28 -156 -30 -166 -41
-235 -5 -33 -12 -69 -14 -80 -2 -11 -7 -40 -11 -65 -9 -58 -13 -79 -21 -113
-3 -16 -7 -38 -9 -50 -1 -12 -13 -78 -25 -147 -12 -69 -24 -138 -26 -155 -3
-16 -11 -64 -19 -105 -8 -41 -16 -91 -19 -110 -3 -19 -7 -44 -10 -55 -2 -11
-7 -40 -11 -65 -4 -25 -9 -54 -11 -65 -2 -11 -7 -33 -9 -50 -3 -16 -12 -66
-20 -110 -8 -44 -17 -96 -20 -115 -3 -19 -8 -46 -10 -60 -11 -54 -13 -69 -20
-121 -3 -30 -8 -65 -10 -79 -3 -14 -7 -45 -10 -70 -3 -25 -7 -63 -11 -85 -9
-66 -13 -88 -19 -135 -3 -25 -13 -85 -21 -135 -8 -49 -17 -103 -20 -120 -30
-190 -103 -549 -125 -619 -22 -67 -55 -194 -63 -241 -3 -16 -8 -41 -11 -55 -3
-14 -8 -36 -10 -50 -2 -14 -7 -38 -10 -55 -5 -29 -13 -78 -20 -120 -2 -11 -11
-63 -20 -115 -9 -52 -19 -108 -21 -125 -3 -16 -14 -77 -24 -135 -25 -142 -51
-297 -56 -340 -2 -19 -6 -46 -9 -60 -3 -14 -8 -52 -11 -84 -3 -33 -7 -63 -10
-67 -7 -12 46 -170 78 -231 65 -122 93 -123 648 -12 69 14 132 27 140 29 67
16 238 50 300 60 25 4 54 9 65 12 11 2 67 12 125 22 58 11 116 24 130 29 14 6
66 22 115 37 189 56 416 161 875 403 58 30 141 74 185 97 44 23 134 70 200
105 66 35 156 82 200 105 114 61 270 142 340 178 159 82 605 376 750 496 61
50 238 176 395 280 527 350 677 463 1006 758 40 35 83 73 95 84 153 132 731
698 950 930 305 323 503 541 756 832 160 184 360 433 532 662 79 105 151 199
160 211 9 11 27 36 41 55 13 19 71 99 129 178 237 329 454 672 576 912 168
331 243 590 249 863 4 191 -21 365 -104 721 -12 50 -23 100 -26 111 -2 12 -17
77 -33 145 -28 116 -57 251 -67 309 -3 14 -11 59 -19 100 -17 90 -51 304 -60
380 -4 30 -10 73 -14 95 l-6 40 -155 1 c-149 1 -585 10 -970 19 -333 8 -600
14 -925 20 -176 3 -405 8 -510 10 -421 9 -2023 23 -2028 18z"/>
<path d="M13228 10735 c-2 -1 -30 -5 -64 -8 -76 -7 -155 -37 -231 -86 -82 -53
-127 -104 -171 -190 -32 -65 -37 -85 -39 -154 -3 -137 37 -205 232 -391 98
-93 137 -138 159 -182 50 -99 45 -209 -12 -238 -71 -36 -133 24 -182 175 -40
124 -56 143 -115 137 -86 -10 -206 -93 -221 -154 -24 -94 147 -270 321 -329
76 -26 193 -31 256 -11 57 19 137 67 184 112 48 45 120 159 130 204 0 3 7 29
14 59 19 77 8 171 -31 250 -24 50 -59 93 -156 189 -165 166 -192 224 -161 347
10 38 59 105 78 105 20 0 57 -57 77 -117 20 -59 22 -82 18 -170 -2 -56 -1
-104 3 -106 41 -26 184 98 228 197 66 149 -1 296 -152 339 -52 15 -157 29
-165 22z"/>
<path d="M14175 10730 c-100 -24 -135 -66 -207 -255 -38 -97 -138 -405 -138
-423 0 -7 -12 -18 -27 -26 -69 -36 -143 -145 -143 -210 0 -36 27 -66 61 -66
14 0 11 -18 -23 -126 -21 -70 -41 -150 -43 -179 -5 -49 -3 -56 25 -89 69 -78
245 -64 312 25 32 42 103 239 134 372 6 27 11 29 69 29 14 0 88 0 164 -1 l140
-1 -9 -27 c-96 -298 -109 -378 -68 -419 65 -65 263 -4 336 105 25 38 132 304
132 329 0 4 21 14 47 21 85 22 195 159 173 215 -10 29 -57 56 -95 56 -14 0
-25 3 -25 8 0 6 61 172 80 217 10 24 43 133 60 198 17 65 15 147 -3 184 -23
44 -83 67 -157 60 -105 -9 -152 -56 -224 -225 -38 -89 -146 -405 -146 -428 0
-8 -8 -14 -17 -15 -10 0 -95 -3 -190 -5 l-171 -5 59 180 c106 325 117 388 79
441 -34 48 -119 75 -185 60z"/>
<path d="M17067 10734 c-1 -1 -26 -4 -55 -8 -104 -12 -128 -17 -191 -39 -91
-31 -150 -105 -134 -168 8 -29 42 -32 103 -9 111 41 112 61 -11 -307 -223
-666 -259 -808 -213 -853 27 -27 67 -31 127 -13 114 34 207 101 240 175 36 78
77 202 93 283 6 31 54 190 129 430 26 83 48 155 49 160 1 6 8 27 15 48 l13 39
35 -34 c65 -62 78 -99 78 -223 0 -99 -3 -115 -27 -166 -34 -70 -74 -112 -159
-168 -85 -56 -120 -112 -86 -139 20 -16 94 -22 150 -12 70 14 189 71 252 123
138 113 243 339 233 502 -13 198 -179 345 -417 371 -58 6 -219 12 -224 8z"/>
<path d="M18348 10735 c-2 -1 -37 -5 -78 -8 -80 -6 -89 -8 -180 -31 -70 -18
-102 -37 -131 -77 -34 -48 -40 -85 -19 -111 l18 -22 68 22 c85 28 109 29 99 5
-11 -29 -200 -600 -233 -703 -83 -267 -98 -327 -101 -391 -2 -50 1 -59 23 -77
40 -31 115 -19 218 35 108 56 150 117 202 293 22 74 31 108 51 194 2 10 24 82
49 160 25 77 66 209 92 293 l48 152 26 -22 c63 -51 93 -128 93 -234 -1 -140
-52 -234 -170 -317 -86 -59 -107 -80 -117 -111 -24 -83 161 -81 314 3 89 48
147 100 198 174 85 125 133 253 133 357 0 84 -6 112 -44 184 -62 118 -198 201
-367 222 -53 7 -188 14 -192 10z"/>
<path d="M16078 10725 c-2 -2 -22 -6 -46 -10 -59 -9 -185 -52 -256 -87 -254
-128 -491 -445 -552 -738 -13 -61 -11 -173 3 -234 36 -156 142 -258 333 -323
42 -14 85 -18 180 -18 135 0 200 16 300 73 43 24 164 119 185 145 65 79 87
110 113 157 43 77 88 189 101 252 6 29 14 64 17 78 14 59 13 267 -1 332 -44
206 -121 245 -280 143 -89 -56 -146 -121 -140 -158 3 -18 23 -58 65 -132 46
-82 64 -150 64 -240 0 -79 -9 -123 -38 -194 -79 -194 -237 -308 -361 -261 -70
26 -125 125 -144 255 -12 81 -7 258 8 298 6 15 9 27 6 27 -2 0 2 18 10 39 47
134 139 266 237 340 35 26 90 52 163 77 114 39 154 60 192 104 31 34 29 56 -5
68 -25 9 -147 14 -154 7z"/>
<path d="M19400 10711 c-80 -26 -165 -70 -195 -101 -15 -15 -30 -45 -35 -65
-8 -36 -5 -239 4 -253 2 -4 7 -32 11 -62 10 -79 69 -306 99 -380 14 -35 26
-67 26 -71 0 -14 89 -197 146 -301 l56 -100 -24 -16 c-65 -47 -134 -69 -238
-78 -40 -3 -82 -12 -94 -19 -47 -31 -133 -208 -121 -252 12 -48 83 -66 190
-49 237 38 444 237 690 661 73 125 296 562 365 715 29 63 58 129 66 145 57
127 68 189 35 198 -20 5 -112 -28 -148 -54 -143 -101 -195 -180 -298 -457 -52
-141 -98 -250 -186 -441 l-33 -74 -14 34 c-8 19 -16 41 -18 49 -2 8 -10 40
-18 70 -8 30 -18 69 -20 85 -29 159 -38 214 -51 321 -3 22 -7 72 -10 110 -3
38 -7 78 -9 89 -2 11 -7 61 -12 110 -4 50 -9 93 -10 98 -1 4 -2 21 -3 37 -1
38 -33 70 -68 69 -16 0 -53 -8 -83 -18z"/>
<path d="M13702 8424 c-166 -29 -304 -122 -376 -254 -40 -74 -49 -110 -49
-195 0 -105 57 -204 189 -326 131 -121 180 -176 209 -234 66 -135 16 -267 -88
-232 -40 13 -81 80 -111 179 -33 107 -56 138 -101 138 -76 0 -204 -81 -231
-146 -21 -51 7 -118 80 -189 125 -121 254 -176 400 -172 71 3 94 8 148 35 166
81 278 255 280 434 2 129 -35 194 -208 370 -128 131 -152 167 -155 238 -3 56
10 130 22 130 5 0 9 6 9 13 0 8 11 24 24 36 21 19 27 21 44 10 26 -16 57 -71
72 -129 12 -45 16 -182 5 -199 -3 -5 -1 -21 4 -35 8 -18 16 -24 31 -21 64 12
168 120 205 211 43 105 15 225 -66 284 -78 56 -205 76 -337 54z"/>
<path d="M18610 8428 c-63 -8 -153 -39 -220 -76 -267 -147 -488 -412 -581
-694 -70 -214 -41 -378 88 -504 125 -121 336 -169 518 -117 176 51 372 142
430 200 57 57 109 228 78 258 -11 12 -19 11 -51 -7 -20 -12 -44 -27 -52 -33
-8 -7 -35 -23 -60 -36 -25 -13 -52 -28 -60 -35 -8 -6 -62 -31 -120 -56 -207
-89 -264 -84 -322 31 -29 57 -37 120 -15 122 6 1 102 2 212 3 190 1 202 2 244
25 57 30 163 136 181 180 13 32 12 35 -9 52 -27 22 -5 20 -353 21 -148 0 -268
3 -268 7 0 49 71 207 129 286 76 105 235 239 275 233 19 -3 21 -9 19 -59 -3
-102 -64 -245 -138 -329 -50 -56 -52 -62 -30 -80 54 -45 273 38 373 141 70 72
106 198 82 285 -18 65 -89 135 -164 163 -67 25 -110 29 -186 19z"/>
<path d="M15894 8405 c-202 -52 -334 -129 -473 -278 -184 -196 -299 -449 -299
-654 0 -138 35 -227 122 -314 126 -127 372 -183 561 -129 237 68 428 267 519
542 33 99 46 173 50 291 4 132 -22 273 -62 335 -19 29 -63 52 -100 52 -72 0
-258 -134 -268 -193 -3 -21 8 -53 45 -120 79 -148 99 -255 71 -382 -35 -161
-171 -327 -288 -353 -73 -17 -160 28 -199 102 -60 115 -72 347 -27 505 24 83
86 200 141 262 90 104 153 142 313 190 54 17 126 64 154 102 19 26 19 28 3 44
-27 27 -152 26 -263 -2z"/>
<path d="M14416 8401 c-55 -17 -160 -112 -189 -171 -32 -62 -15 -118 40 -137
29 -10 168 -10 266 1 31 3 57 5 57 2 0 -2 -15 -37 -34 -78 -80 -176 -162 -401
-232 -643 -30 -103 -38 -147 -39 -212 0 -77 2 -83 29 -112 38 -40 82 -48 147
-27 71 24 174 91 197 129 24 40 88 227 83 244 0 2 6 24 15 50 8 27 21 80 30
118 8 39 17 78 20 88 2 9 6 26 8 37 12 52 67 250 80 287 8 22 13 66 12 96 l-3
54 67 12 c38 7 77 21 93 34 32 25 57 88 51 131 -9 70 -57 84 -354 102 -197 12
-295 10 -344 -5z"/>
<path d="M16897 8384 c-1 -1 -20 -4 -42 -7 -110 -15 -175 -38 -207 -73 -23
-27 -37 -85 -26 -113 8 -23 11 -24 83 -18 41 4 75 5 75 2 0 -2 -17 -49 -39
-102 -103 -260 -248 -698 -277 -838 -39 -192 14 -241 182 -167 124 55 165 113
237 337 29 91 139 466 204 695 30 108 35 120 44 120 24 0 109 -52 127 -78 74
-103 31 -315 -85 -428 -26 -25 -77 -60 -113 -77 -71 -34 -80 -41 -80 -74 0
-51 81 -242 148 -347 66 -105 190 -193 286 -203 105 -12 201 81 240 232 8 32
14 60 13 60 -1 1 -51 25 -112 55 -89 43 -122 65 -177 120 -38 37 -68 75 -68
83 0 9 23 23 58 36 69 26 160 95 202 152 83 115 97 268 37 386 -21 39 -83 104
-137 141 -45 32 -147 77 -191 86 -13 2 -44 9 -69 15 -37 8 -304 13 -313 5z"/>
</g>
</svg>
